<svg width="65" height="65" viewBox="0 0 65 65" fill="none" xmlns="http://www.w3.org/2000/svg">
<rect width="65" height="65" rx="12" fill="url(#paint0_linear_180_5771)"/>
<path d="M56.5 32.5C56.5 37.2467 55.0924 41.8869 52.4553 45.8337C49.8181 49.7805 46.0698 52.8566 41.6844 54.6731C37.299 56.4896 32.4734 56.9649 27.8178 56.0388C23.1623 55.1128 18.8859 52.827 15.5294 49.4706C12.173 46.1141 9.88721 41.8377 8.96116 37.1822C8.03512 32.5266 8.5104 27.701 10.3269 23.3156C12.1434 18.9302 15.2195 15.1819 19.1663 12.5447C23.1131 9.90758 27.7533 8.5 32.5 8.5C35.6517 8.5 38.7726 9.12078 41.6844 10.3269C44.5962 11.533 47.242 13.3008 49.4706 15.5294C51.6992 17.758 53.467 20.4038 54.6731 23.3156C55.8792 26.2274 56.5 29.3483 56.5 32.5ZM15.8998 27.8043C15.8998 27.8043 15.4451 27.9862 15.4451 28.2742C15.4451 28.5621 15.8998 28.744 15.8998 28.744L31.4117 35.3253C32.1267 35.5837 32.9096 35.5837 33.6247 35.3253L43.0222 31.3389L49.1305 28.7471C49.1825 28.7249 49.2332 28.6996 49.2821 28.6713L49.3003 28.6591L49.3488 28.6288C49.4141 28.5942 49.4699 28.544 49.5112 28.4827C49.5524 28.4213 49.5779 28.3507 49.5853 28.2772C49.5853 28.1044 49.4337 27.9377 49.1305 27.8073L33.6216 21.223C33.3198 21.105 32.9998 21.0404 32.6758 21.032H32.5152C32.1385 21.0243 31.7639 21.0892 31.4117 21.223L15.8998 27.8043ZM43.0252 33.4216L34.3734 37.0926C33.1787 37.5544 31.8547 37.5544 30.6599 37.0926L22.0112 33.4216V38.1658C22.0112 41.2245 26.716 43.7012 32.5182 43.7012C38.3204 43.7012 43.0282 41.2245 43.0282 38.1658L43.0252 33.4216ZM48.7304 39.4602C48.7304 38.9818 48.5404 38.523 48.2021 38.1848C47.8638 37.8465 47.4051 37.6565 46.9267 37.6565C46.4483 37.6565 45.9895 37.8465 45.6513 38.1848C45.313 38.523 45.123 38.9818 45.123 39.4602V41.855H48.7304V39.4602ZM46.9267 33.5216C47.1642 33.5216 47.3965 33.4511 47.5939 33.3191C47.7914 33.187 47.9453 32.9994 48.036 32.7798C48.1268 32.5603 48.1504 32.3188 48.1038 32.0858C48.0573 31.8529 47.9426 31.639 47.7745 31.4712C47.6063 31.3035 47.3921 31.1894 47.159 31.1434C46.9259 31.0974 46.6845 31.1216 46.4652 31.2129C46.2459 31.3043 46.0586 31.4586 45.9271 31.6564C45.7955 31.8542 45.7256 32.0866 45.7262 32.3242C45.727 32.642 45.8539 32.9466 46.0789 33.1711C46.3039 33.3955 46.6088 33.5216 46.9267 33.5216ZM45.7262 35.5587C45.7262 35.7962 45.7966 36.0283 45.9285 36.2257C46.0604 36.4231 46.2479 36.5769 46.4673 36.6678C46.6866 36.7587 46.928 36.7824 47.1609 36.7361C47.3937 36.6898 47.6076 36.5755 47.7755 36.4076C47.9434 36.2397 48.0578 36.0258 48.1041 35.7929C48.1504 35.5601 48.1266 35.3187 48.0358 35.0993C47.9449 34.88 47.791 34.6925 47.5936 34.5606C47.3962 34.4287 47.1641 34.3583 46.9267 34.3583C46.6083 34.3583 46.303 34.4848 46.0778 34.7099C45.8527 34.935 45.7262 35.2403 45.7262 35.5587Z" fill="white"/>
<defs>
<linearGradient id="paint0_linear_180_5771" x1="56.875" y1="4.875" x2="7.3125" y2="58.5" gradientUnits="userSpaceOnUse">
<stop stop-color="#CC00FF"/>
<stop offset="0.503513" stop-color="#9900FF"/>
<stop offset="1" stop-color="#711FFF"/>
</linearGradient>
</defs>
</svg>
